<svg width="539" height="539" viewBox="0 0 539 539" fill="none" xmlns="http://www.w3.org/2000/svg">
<path d="M269.508 530.479C125.608 530.479 8.52051 413.409 8.52051 269.492C8.52051 125.574 125.591 8.521 269.508 8.521C413.425 8.521 530.496 125.592 530.496 269.492C530.496 413.392 413.408 530.479 269.508 530.479Z" fill="#1A540E"/>
<path style="mix-blend-mode:multiply" d="M269.508 530.479C125.608 530.479 8.52051 413.409 8.52051 269.492C8.52051 125.574 125.591 8.521 269.508 8.521C413.425 8.521 530.496 125.592 530.496 269.492C530.496 413.392 413.408 530.479 269.508 530.479Z" fill="url(#paint0_radial_16072_1072)"/>
<path d="M269.509 402.697C196.07 402.697 136.32 342.947 136.32 269.491C136.32 196.036 196.07 136.303 269.509 136.303C342.948 136.303 402.715 196.053 402.715 269.491C402.715 342.93 342.965 402.697 269.509 402.697Z" fill="#593700"/>
<path style="mix-blend-mode:multiply" d="M269.509 402.697C196.07 402.697 136.32 342.947 136.32 269.491C136.32 196.036 196.07 136.303 269.509 136.303C342.948 136.303 402.715 196.053 402.715 269.491C402.715 342.93 342.965 402.697 269.509 402.697Z" fill="url(#paint1_radial_16072_1072)"/>
<path style="mix-blend-mode:screen" d="M371.042 183.443C367.022 216.911 351.776 248.771 326.555 274.009C278.782 316.751 212.445 339.012 152.232 332.613C174.767 374.311 218.878 402.715 269.508 402.715C342.947 402.715 402.714 342.965 402.714 269.509C402.714 236.725 390.788 206.696 371.06 183.46L371.042 183.443Z" fill="url(#paint2_linear_16072_1072)"/>
<path style="mix-blend-mode:screen" d="M365.602 187.652C237.752 73.1818 94.9641 219.443 166.76 333.913C167.872 220.35 269.509 160.668 365.602 187.652Z" fill="url(#paint3_linear_16072_1072)"/>
<path d="M269.509 8.50415V65.3284C257.428 65.3284 245.605 66.3892 234.073 68.4254L224.183 12.4567C238.915 9.873 254.041 8.52126 269.509 8.52126V8.50415Z" fill="#0E0F12"/>
<path d="M180.242 24.2456L199.663 77.6306C188.438 81.72 177.659 86.7848 167.426 92.7392L139.04 43.5634C152.095 35.9492 165.869 29.4814 180.259 24.2456H180.242Z" fill="#0E0F12"/>
<path d="M101.826 69.6744L138.305 113.17C129.185 120.784 120.801 129.219 113.17 138.339L69.6748 101.825C79.4278 90.19 90.1733 79.4446 101.808 69.6915L101.826 69.6744Z" fill="#0E0F12"/>
<path d="M43.5458 139.04L92.7216 167.427C86.7671 177.659 81.7024 188.439 77.6301 199.663L24.2793 180.243C29.5151 165.887 35.9829 152.079 43.5629 139.023L43.5458 139.04Z" fill="#0E0F12"/>
<path d="M12.4731 224.149L68.4075 234.004C66.3714 245.537 65.3105 257.395 65.3105 269.509H8.52051C8.52051 254.041 9.87224 238.864 12.4559 224.149H12.4731Z" fill="#0E0F12"/>
<path d="M77.6131 339.354L24.2624 358.741C19.095 344.624 15.1082 329.978 12.4561 314.835L68.3905 304.979C70.4609 316.803 73.5579 328.301 77.596 339.354H77.6131Z" fill="#0E0F12"/>
<path d="M113.153 400.695L69.6918 437.175C59.9388 425.574 51.1611 413.135 43.5469 399.942L92.6885 371.59C98.6772 381.891 105.539 391.661 113.153 400.695Z" fill="#0E0F12"/>
<path d="M167.427 446.295L139.074 495.471C125.882 487.857 113.443 479.079 101.842 469.326L138.322 425.831C147.373 433.479 157.126 440.358 167.427 446.295Z" fill="#0E0F12"/>
<path d="M234.038 470.609L224.183 526.544C209.057 523.892 194.359 519.922 180.26 514.755L199.68 461.404C210.734 465.442 222.215 468.539 234.055 470.627L234.038 470.609Z" fill="#0E0F12"/>
<path d="M304.962 470.609L314.818 526.544C300.103 529.128 284.96 530.496 269.492 530.496V473.723C281.589 473.723 293.43 472.663 304.945 470.626L304.962 470.609Z" fill="#0E0F12"/>
<path d="M371.574 446.295L399.943 495.471C386.888 503.051 373.114 509.519 358.775 514.755L339.354 461.404C350.579 457.332 361.359 452.25 371.591 446.295H371.574Z" fill="#0E0F12"/>
<path d="M425.848 400.661L469.343 437.141C459.573 448.81 448.81 459.539 437.175 469.309L400.695 425.814C409.815 418.199 418.234 409.764 425.865 400.644L425.848 400.661Z" fill="#0E0F12"/>
<path d="M461.369 339.354L514.72 358.758C509.484 373.113 503.017 386.887 495.437 399.943L446.261 371.591C452.215 361.358 457.28 350.579 461.352 339.354H461.369Z" fill="#0E0F12"/>
<path d="M473.689 269.509H530.479C530.479 284.943 529.11 300.068 526.526 314.8L470.592 304.979C472.628 293.447 473.689 281.623 473.689 269.509Z" fill="#0E0F12"/>
<path d="M526.526 224.2L470.592 234.055C468.521 222.215 465.424 210.734 461.369 199.68L514.72 180.26C519.887 194.376 523.857 209.057 526.509 224.2H526.526Z" fill="#0E0F12"/>
<path d="M495.437 139.041L446.261 167.427C440.324 157.126 433.445 147.373 425.831 138.322L469.326 101.842C479.079 113.443 487.823 125.883 495.437 139.041Z" fill="#0E0F12"/>
<path d="M358.758 24.2457L339.337 77.6307C328.284 73.5926 316.785 70.4956 304.962 68.4253L314.852 12.4565C329.978 15.1087 344.641 19.0954 358.758 24.2628V24.2457Z" fill="#0E0F12"/>
<path d="M437.158 69.6743L400.678 113.169C391.61 105.521 381.84 98.6938 371.539 92.7051L399.926 43.5293C413.118 51.1435 425.557 59.9212 437.158 69.6743Z" fill="#0E0F12"/>
<path d="M530.461 269.509H473.671C473.671 257.394 472.61 245.571 470.574 234.038L526.509 224.183C529.092 238.898 530.461 254.041 530.461 269.509Z" fill="#7A88F0"/>
<path d="M470.591 304.979L526.526 314.801C523.874 329.926 519.904 344.641 514.737 358.758L461.386 339.354C465.424 328.301 468.521 316.803 470.608 304.979H470.591Z" fill="#FAFAFA"/>
<path d="M514.72 180.26L461.369 199.681C457.297 188.456 452.215 177.676 446.277 167.444L495.453 139.058C503.033 152.113 509.501 165.921 514.737 180.277L514.72 180.26Z" fill="#7A88F0"/>
<path d="M446.278 371.59L495.453 399.942C487.839 413.135 479.096 425.54 469.343 437.141L425.848 400.661C433.496 391.61 440.34 381.891 446.278 371.59Z" fill="#FAFAFA"/>
<path d="M469.327 101.842L425.832 138.322C418.183 129.202 409.782 120.783 400.662 113.152L437.142 69.6569C448.777 79.4099 459.557 90.1896 469.31 101.825L469.327 101.842Z" fill="#7FBCDD"/>
<path d="M400.678 425.831L437.158 469.326C425.557 479.079 413.117 487.857 399.925 495.471L371.556 446.295C381.856 440.341 391.626 433.479 400.661 425.831H400.678Z" fill="#49D8BC"/>
<path d="M399.925 43.5292L371.539 92.705C361.341 86.7848 350.561 81.72 339.337 77.6306L358.757 24.2456C373.096 29.4814 386.87 35.9492 399.925 43.5292Z" fill="#FF6B5F"/>
<path d="M339.337 461.386L358.758 514.737C344.641 519.905 329.96 523.874 314.818 526.526L304.962 470.592C316.802 468.522 328.284 465.425 339.337 461.369V461.386Z" fill="#49D8BC"/>
<path d="M314.852 12.4567L304.962 68.4254C293.429 66.3892 281.606 65.3284 269.509 65.3284V8.50415C284.977 8.50415 300.137 9.85589 314.869 12.4396L314.852 12.4567Z" fill="#FF6B5F"/>
<path d="M269.509 473.706V530.479C254.041 530.479 238.898 529.127 224.183 526.526L234.038 470.592C245.571 472.628 257.394 473.689 269.509 473.689V473.706Z" fill="#49D8BC"/>
<path d="M224.167 12.4567L234.056 68.4254C222.216 70.4958 210.7 73.5928 199.647 77.6309L180.227 24.2459C194.343 19.0785 209.024 15.1088 224.149 12.4396L224.167 12.4567Z" fill="#FF6B5F"/>
<path d="M199.664 461.387L180.243 514.738C165.887 509.502 152.131 503.034 139.075 495.454L167.427 446.278C177.66 452.233 188.439 457.298 199.664 461.387Z" fill="#49D8BC"/>
<path d="M139.023 43.5635L167.409 92.7393C157.108 98.6938 147.355 105.555 138.304 113.169L101.824 69.6742C113.425 59.9212 125.83 51.1777 139.023 43.5635Z" fill="#FF6B5F"/>
<path d="M138.321 425.831L101.842 469.326C90.2065 459.573 79.461 448.828 69.708 437.192L113.169 400.713C120.817 409.833 129.219 418.217 138.321 425.848V425.831Z" fill="#F6FF00"/>
<path d="M69.6918 101.825L113.187 138.339C105.539 147.39 98.66 157.143 92.7227 167.444L43.5469 139.058C51.1611 125.865 59.9388 113.426 69.6918 101.825Z" fill="#FF6B5F"/>
<path d="M92.6879 371.59L43.5463 399.943C35.9663 386.887 29.4643 373.113 24.2627 358.74L77.6135 339.354C81.7029 350.561 86.7676 361.358 92.6708 371.59H92.6879Z" fill="#F6FF00"/>
<path d="M24.2794 180.26L77.6302 199.68C73.5921 210.734 70.4951 222.181 68.4247 234.021L12.4902 224.165C15.1424 209.04 19.1291 194.376 24.2965 180.26H24.2794Z" fill="#F6FF00"/>
<path d="M68.408 304.979L12.4735 314.835C9.88982 300.12 8.53809 284.977 8.53809 269.509H65.3281C65.3281 281.606 66.3889 293.447 68.4251 304.979H68.408Z" fill="#F6FF00"/>
<path d="M159.865 265.06C160.584 266.548 160.994 268.259 160.994 270.022C160.994 271.784 160.618 273.358 159.933 274.813C158.137 278.68 154.219 281.366 149.633 281.366C143.336 281.366 138.271 276.301 138.271 270.004C138.271 263.708 143.336 258.643 149.633 258.643C154.15 258.643 158.034 261.261 159.865 265.042V265.06Z" fill="url(#paint4_radial_16072_1072)"/>
<path d="M274.369 379.923C278.236 381.72 280.956 385.672 280.956 390.258C280.956 396.52 275.857 401.619 269.595 401.619C263.332 401.619 258.199 396.52 258.199 390.258C258.199 385.741 260.817 381.822 264.633 380.026C266.121 379.273 267.798 378.862 269.595 378.862C271.289 378.862 272.897 379.239 274.352 379.923H274.369Z" fill="url(#paint5_radial_16072_1072)"/>
<path d="M379.393 264.718C381.224 260.8 385.176 258.113 389.728 258.113C395.99 258.113 401.089 263.212 401.089 269.509C401.089 275.806 395.99 280.87 389.728 280.87C385.21 280.87 381.292 278.252 379.461 274.437C378.743 272.948 378.332 271.271 378.332 269.509C378.332 267.747 378.708 266.172 379.393 264.718Z" fill="url(#paint6_radial_16072_1072)"/>
<path d="M274.471 159.522C272.982 160.275 271.271 160.668 269.509 160.668C267.746 160.668 266.172 160.292 264.752 159.625C260.834 157.828 258.147 153.876 258.147 149.29C258.147 143.027 263.212 137.928 269.509 137.928C275.806 137.928 280.87 143.027 280.87 149.29C280.87 153.773 278.287 157.691 274.471 159.522Z" fill="url(#paint7_radial_16072_1072)"/>
<path d="M287.63 251.902C292.079 256.453 294.799 262.647 294.799 269.509C294.799 276.37 291.839 283.043 287.116 287.629C282.565 292.043 276.337 294.764 269.51 294.764C262.683 294.764 256.779 292.18 252.262 287.954C247.3 283.368 244.203 276.764 244.203 269.492C244.203 262.853 246.753 256.847 250.979 252.313C251.184 252.039 251.424 251.799 251.663 251.56C256.249 246.991 262.546 244.185 269.51 244.185C276.474 244.185 282.805 247.008 287.39 251.594C287.493 251.697 287.561 251.765 287.63 251.868V251.902ZM287.681 269.509C287.681 259.482 279.519 251.32 269.493 251.32C259.466 251.32 251.304 259.482 251.304 269.509C251.304 279.535 259.466 287.663 269.493 287.663C279.519 287.663 287.681 279.535 287.681 269.509Z" fill="url(#paint8_linear_16072_1072)"/>
<path d="M287.681 269.509C287.681 279.535 279.519 287.663 269.492 287.663C259.465 287.663 251.304 279.535 251.304 269.509C251.304 259.482 259.465 251.32 269.492 251.32C279.519 251.32 287.681 259.482 287.681 269.509Z" fill="url(#paint9_radial_16072_1072)"/>
<path d="M287.543 251.697C287.543 251.697 287.407 251.628 287.372 251.628C282.787 247.043 276.473 244.219 269.492 244.219C262.511 244.219 256.231 247.043 251.646 251.594C262.665 221.137 264.632 162.568 264.735 159.625C266.172 160.309 267.798 160.668 269.492 160.668C271.186 160.668 272.965 160.258 274.454 159.522C274.454 159.522 276.251 220.453 287.543 251.714V251.697Z" fill="url(#paint10_linear_16072_1072)"/>
<path style="mix-blend-mode:multiply" d="M255.752 237.375C254.537 242.508 253.185 247.333 251.646 251.594C256.231 247.025 262.528 244.219 269.492 244.219C276.456 244.219 282.787 247.043 287.372 251.628C287.407 251.628 287.475 251.662 287.543 251.697C285.49 246.016 283.762 239.36 282.291 232.259C272.828 231.386 263.572 233.08 255.752 237.375Z" fill="url(#paint11_linear_16072_1072)"/>
<path d="M244.202 269.509C244.202 276.781 247.299 283.386 252.261 287.971C251.988 287.868 251.748 287.766 251.474 287.697C220.709 276.815 162.294 274.882 159.933 274.813C160.617 273.342 160.994 271.75 160.994 270.022C160.994 268.294 160.583 266.549 159.864 265.06C159.864 265.06 219.409 263.332 250.961 252.347C246.752 256.864 244.185 262.887 244.185 269.526L244.202 269.509Z" fill="url(#paint12_linear_16072_1072)"/>
<path style="mix-blend-mode:multiply" d="M252.262 287.971C247.299 283.385 244.202 276.78 244.202 269.508C244.202 262.869 246.752 256.864 250.978 252.329C247.779 253.442 244.288 254.451 240.609 255.392C235.681 264.752 236.622 275.548 241.294 284.651C244.921 285.575 248.343 286.585 251.474 287.697C251.748 287.765 251.988 287.868 252.262 287.971Z" fill="url(#paint13_linear_16072_1072)"/>
<path d="M287.544 287.646C276.422 318.086 274.454 377.1 274.351 379.923C272.88 379.239 271.289 378.862 269.595 378.862C267.798 378.862 266.121 379.273 264.633 380.026C264.633 380.026 262.836 318.924 251.475 287.714C251.748 287.783 251.988 287.885 252.262 287.988C256.779 292.197 262.836 294.798 269.509 294.798C276.182 294.798 282.565 292.078 287.116 287.663C287.253 287.629 287.39 287.56 287.527 287.526L287.561 287.663L287.544 287.646Z" fill="url(#paint14_linear_16072_1072)"/>
<path style="mix-blend-mode:multiply" d="M287.527 287.509C287.39 287.543 287.253 287.611 287.116 287.646C282.565 292.06 276.336 294.781 269.509 294.781C262.682 294.781 256.779 292.197 252.262 287.971C251.988 287.868 251.748 287.765 251.475 287.697C252.689 291.051 253.785 294.747 254.794 298.665C262.032 304.808 271.819 308.024 281.914 308.675C283.471 300.975 285.319 293.72 287.544 287.629L287.509 287.492L287.527 287.509Z" fill="url(#paint15_linear_16072_1072)"/>
<path d="M287.543 251.697C318.051 262.647 376.432 264.615 379.393 264.718C378.708 266.172 378.332 267.815 378.332 269.509C378.332 271.203 378.742 272.948 379.461 274.436C377.767 274.505 318.359 276.37 287.526 287.492C287.389 287.526 287.252 287.595 287.115 287.629C291.838 283.043 294.798 276.61 294.798 269.509C294.798 262.408 292.077 256.453 287.629 251.902C287.594 251.833 287.594 251.765 287.56 251.697H287.543Z" fill="url(#paint16_linear_16072_1072)"/>
<path style="mix-blend-mode:multiply" d="M303.678 256.214C297.826 254.913 292.351 253.408 287.56 251.697C287.594 251.765 287.594 251.833 287.629 251.902C292.077 256.453 294.798 262.647 294.798 269.509C294.798 276.37 291.838 283.043 287.115 287.629C287.252 287.595 287.389 287.526 287.526 287.492C293.805 285.233 301.283 283.351 309.222 281.794C310.061 273.102 308.332 264.204 303.695 256.214H303.678Z" fill="url(#paint17_linear_16072_1072)"/>
<path d="M400 425L356.5 373.5C387.3 346.3 400.667 308.5 403.5 293L468 304.5C464.8 340.9 421.333 400.333 400 425Z" fill="#FAFAFA"/>
<path d="M468.842 305.485L402.301 294.679C407.993 253.984 393.549 216.582 385.616 202.968L442.079 169.735C463.332 199.459 468.993 272.873 468.842 305.485Z" fill="#7A88F0"/>
<path d="M398.845 424.684L355.368 372.664C333.669 391.622 330.451 392.567 273.366 405.438C248.907 410.953 198.391 391.344 180.278 372.778L140.932 422.401C158.215 442.982 219.368 473.488 268.051 470.381C349.906 465.158 368.613 445.891 398.845 424.684Z" fill="#49D8BC"/>
<path d="M270.346 408.378H268.652V539H270.346V408.378Z" fill="#0E0F12"/>
<path d="M96 168.285L151.168 201C169.223 165.265 208.897 132.551 264.514 132.551C305.554 132.551 336.332 152.073 356.835 165.078L357.5 165.5L397 116C379.781 95.3645 351.88 75.6775 270.031 67.6246C188.181 59.5718 119.906 131.376 96 168.285Z" fill="#FF6B5F"/>
<path d="M398 116L356.5 166.5C370.5 176.1 382 194.5 386 202.5L444 169L398 116Z" fill="#7FBCDD" stroke="#0E0F12"/>
<path d="M139.5 425L183 373C160.5 355 159 352 136.225 298.096C126.467 275 136.821 221.81 151.887 200.696L96.0821 170.758C78.8856 191.412 59.6899 257 71.3669 304.364C91.0002 384 113.275 399 139.5 425Z" fill="#F6FF00"/>
<path d="M270.346 0H268.652V130.622H270.346V0Z" fill="#0E0F12"/>
<path d="M315.468 535.048L292.779 406.428L294.456 406.137L317.128 534.757L315.468 535.048Z" fill="#0E0F12"/>
<path d="M223.547 3.94242L221.879 4.23657L244.561 132.874L246.229 132.58L223.547 3.94242Z" fill="#0E0F12"/>
<path d="M360.879 523.036L316.203 400.302L317.794 399.72L362.47 522.454L360.879 523.036Z" fill="#0E0F12"/>
<path d="M178.129 15.9717L176.537 16.551L221.213 139.296L222.804 138.716L178.129 15.9717Z" fill="#0E0F12"/>
<path d="M339.643 389.286L338.176 390.133L403.521 503.314L404.988 502.467L339.643 389.286Z" fill="#0E0F12"/>
<path d="M135.482 35.6889L134.015 36.5359L199.36 149.717L200.827 148.87L135.482 35.6889Z" fill="#0E0F12"/>
<path d="M359.365 375.265L358.067 376.354L442.085 476.481L443.382 475.393L359.365 375.265Z" fill="#0E0F12"/>
<path d="M96.9265 62.4968L95.6289 63.5857L179.635 163.7L180.933 162.612L96.9265 62.4968Z" fill="#0E0F12"/>
<path d="M376.374 358.064L375.285 359.362L475.413 443.379L476.502 442.082L376.374 358.064Z" fill="#0E0F12"/>
<path d="M162.635 180.944L62.5039 96.9142L63.599 95.6138L163.73 179.644L162.635 180.944Z" fill="#0E0F12"/>
<path d="M390.132 338.176L389.285 339.643L502.452 404.98L503.299 403.513L390.132 338.176Z" fill="#0E0F12"/>
<path d="M36.5345 134.017L35.6875 135.484L148.869 200.829L149.716 199.362L36.5345 134.017Z" fill="#0E0F12"/>
<path d="M400.282 316.164L399.697 317.771L522.442 362.447L523.027 360.839L400.282 316.164Z" fill="#0E0F12"/>
<path d="M16.5452 176.531L15.9658 178.123L138.694 222.793L139.274 221.201L16.5452 176.531Z" fill="#0E0F12"/>
<path d="M406.437 292.808L406.143 294.476L534.78 317.158L535.074 315.49L406.437 292.808Z" fill="#0E0F12"/>
<path d="M4.24532 221.853L3.95117 223.521L132.589 246.203L132.883 244.535L4.24532 221.853Z" fill="#0E0F12"/>
<path d="M539 268.653H408.378V270.347H539V268.653Z" fill="#0E0F12"/>
<path d="M130.622 268.653H0V270.364H130.622V268.653Z" fill="#0E0F12"/>
<path d="M534.757 221.837L406.131 244.586L406.426 246.254L535.052 223.505L534.757 221.837Z" fill="#0E0F12"/>
<path d="M132.589 292.732L3.96289 315.482L4.25792 317.15L132.884 294.4L132.589 292.732Z" fill="#0E0F12"/>
<path d="M400.302 222.797L399.721 221.205L522.472 176.53L523.037 178.121L400.302 222.797Z" fill="#0E0F12"/>
<path d="M138.708 316.18L15.9785 360.898L16.5584 362.49L139.287 317.772L138.708 316.18Z" fill="#0E0F12"/>
<path d="M502.473 133.98L389.292 199.325L390.139 200.792L503.32 135.447L502.473 133.98Z" fill="#0E0F12"/>
<path d="M148.914 338.204L35.6875 403.471L36.5335 404.938L149.76 339.672L148.914 338.204Z" fill="#0E0F12"/>
<path d="M475.315 95.5258L375.378 179.77L376.47 181.065L476.407 96.8209L475.315 95.5258Z" fill="#0E0F12"/>
<path d="M162.577 358.057L62.5225 442.162L63.6124 443.459L163.667 359.354L162.577 358.057Z" fill="#0E0F12"/>
<path d="M442.115 62.5373L358.074 162.623L359.371 163.712L443.413 63.6266L442.115 62.5373Z" fill="#0E0F12"/>
<path d="M179.619 375.26L95.6367 475.418L96.9347 476.506L180.917 376.349L179.619 375.26Z" fill="#0E0F12"/>
<path d="M403.563 35.7293L338.158 148.876L339.625 149.724L405.029 36.5771L403.563 35.7293Z" fill="#0E0F12"/>
<path d="M199.379 389.35L133.975 502.497L135.441 503.345L200.846 390.198L199.379 389.35Z" fill="#0E0F12"/>
<path d="M317.794 139.297L316.203 138.699L360.879 15.9473L362.487 16.5461L317.794 139.297Z" fill="#0E0F12"/>
<path d="M178.121 523.053L176.529 522.454L221.205 399.72L222.796 400.302L178.121 523.053Z" fill="#0E0F12"/>
<path d="M315.624 3.97086L292.628 132.553L294.295 132.851L317.292 4.26908L315.624 3.97086Z" fill="#0E0F12"/>
<path d="M223.55 535.048L221.873 534.757L244.545 406.137L246.221 406.428L223.55 535.048Z" fill="#0E0F12"/>
<path d="M269.51 532.173C124.669 532.173 6.82812 414.332 6.82812 269.491C6.82812 124.65 124.669 6.8269 269.51 6.8269C414.351 6.8269 532.191 124.667 532.191 269.491C532.191 414.315 414.351 532.173 269.51 532.173ZM269.51 10.2148C126.534 10.2148 10.216 126.532 10.216 269.491C10.216 412.45 126.534 528.768 269.493 528.768C412.452 528.768 528.769 412.45 528.769 269.491C528.769 126.532 412.469 10.2148 269.51 10.2148Z" fill="#DCB359"/>
<path d="M269.509 475.383C155.98 475.383 63.6172 383.02 63.6172 269.491C63.6172 155.962 155.98 63.6167 269.509 63.6167C383.037 63.6167 475.4 155.98 475.4 269.491C475.4 383.003 383.037 475.383 269.509 475.383ZM269.509 67.0217C157.862 67.0217 67.0222 157.845 67.0222 269.491C67.0222 381.138 157.862 471.978 269.509 471.978C381.155 471.978 471.995 381.138 471.995 269.491C471.995 157.845 381.155 67.0217 269.509 67.0217Z" fill="#DCB359"/>
<defs>
<radialGradient id="paint0_radial_16072_1072" cx="0" cy="0" r="1" gradientUnits="userSpaceOnUse" gradientTransform="translate(269.508 269.492) scale(260.988 260.988)">
<stop offset="0.58" stop-color="white"/>
<stop offset="0.6" stop-color="#FAF9F9"/>
<stop offset="0.63" stop-color="#EDEBE9"/>
<stop offset="0.66" stop-color="#D8D2CF"/>
<stop offset="0.69" stop-color="#BBB0AB"/>
<stop offset="0.72" stop-color="#95847D"/>
<stop offset="0.76" stop-color="#674F45"/>
<stop offset="0.79" stop-color="#3D1E11"/>
</radialGradient>
<radialGradient id="paint1_radial_16072_1072" cx="0" cy="0" r="1" gradientUnits="userSpaceOnUse" gradientTransform="translate(269.509 269.491) scale(133.189)">
<stop stop-color="#A12F00"/>
<stop offset="0.01" stop-color="#A13003"/>
<stop offset="0.11" stop-color="#A63F1C"/>
<stop offset="0.2" stop-color="#A9482C"/>
<stop offset="0.27" stop-color="#AA4C32"/>
<stop offset="0.57" stop-color="#BD755B"/>
<stop offset="1" stop-color="white"/>
</radialGradient>
<linearGradient id="paint2_linear_16072_1072" x1="428.431" y1="426.995" x2="278.816" y2="279.091" gradientUnits="userSpaceOnUse">
<stop stop-color="#BA7B1C"/>
<stop offset="1"/>
</linearGradient>
<linearGradient id="paint3_linear_16072_1072" x1="219.341" y1="85.587" x2="260.15" y2="249.934" gradientUnits="userSpaceOnUse">
<stop stop-color="white"/>
<stop offset="1"/>
</linearGradient>
<radialGradient id="paint4_radial_16072_1072" cx="0" cy="0" r="1" gradientUnits="userSpaceOnUse" gradientTransform="translate(145.783 265.504) scale(17.9148)">
<stop stop-color="white"/>
<stop offset="0.23" stop-color="#FFF6A3"/>
<stop offset="0.37" stop-color="#FAE475"/>
<stop offset="0.58" stop-color="#D4AB44"/>
<stop offset="0.74" stop-color="#F5D76C"/>
<stop offset="0.97" stop-color="#FFFA6B"/>
</radialGradient>
<radialGradient id="paint5_radial_16072_1072" cx="0" cy="0" r="1" gradientUnits="userSpaceOnUse" gradientTransform="translate(263.076 382.815) scale(22.5689)">
<stop stop-color="white"/>
<stop offset="0.23" stop-color="#FFF6A3"/>
<stop offset="0.37" stop-color="#FAE475"/>
<stop offset="0.58" stop-color="#D4AB44"/>
<stop offset="0.74" stop-color="#F5D76C"/>
<stop offset="0.97" stop-color="#FFFA6B"/>
</radialGradient>
<radialGradient id="paint6_radial_16072_1072" cx="0" cy="0" r="1" gradientUnits="userSpaceOnUse" gradientTransform="translate(383.226 260.971) scale(25.6317 25.6316)">
<stop stop-color="white"/>
<stop offset="0.23" stop-color="#FFF6A3"/>
<stop offset="0.37" stop-color="#FAE475"/>
<stop offset="0.58" stop-color="#D4AB44"/>
<stop offset="0.74" stop-color="#F5D76C"/>
<stop offset="0.97" stop-color="#FFFA6B"/>
</radialGradient>
<radialGradient id="paint7_radial_16072_1072" cx="0" cy="0" r="1" gradientUnits="userSpaceOnUse" gradientTransform="translate(264.786 141.385) scale(22.3293 22.3293)">
<stop stop-color="white"/>
<stop offset="0.23" stop-color="#FFF6A3"/>
<stop offset="0.37" stop-color="#FAE475"/>
<stop offset="0.58" stop-color="#D4AB44"/>
<stop offset="0.74" stop-color="#F5D76C"/>
<stop offset="0.97" stop-color="#FFFA6B"/>
</radialGradient>
<linearGradient id="paint8_linear_16072_1072" x1="243.296" y1="248.428" x2="295.432" y2="290.366" gradientUnits="userSpaceOnUse">
<stop stop-color="#A86A18"/>
<stop offset="0.12" stop-color="#F5CE5B"/>
<stop offset="0.23" stop-color="#F1D99C"/>
<stop offset="0.33" stop-color="#F5F7BB"/>
<stop offset="0.58" stop-color="#DBB054"/>
<stop offset="0.74" stop-color="#F3C954"/>
<stop offset="0.84" stop-color="#F1CF65"/>
<stop offset="0.96" stop-color="#A86A18"/>
</linearGradient>
<radialGradient id="paint9_radial_16072_1072" cx="0" cy="0" r="1" gradientUnits="userSpaceOnUse" gradientTransform="translate(261.946 258.712) scale(35.3847 35.3847)">
<stop stop-color="white"/>
<stop offset="0.23" stop-color="#FFF6A3"/>
<stop offset="0.37" stop-color="#FAE475"/>
<stop offset="0.58" stop-color="#D4AB44"/>
<stop offset="0.74" stop-color="#F5D76C"/>
<stop offset="0.97" stop-color="#FFFA6B"/>
</radialGradient>
<linearGradient id="paint10_linear_16072_1072" x1="248.925" y1="205.618" x2="306.485" y2="205.618" gradientUnits="userSpaceOnUse">
<stop stop-color="#A86A18"/>
<stop offset="0.12" stop-color="#F5CE5B"/>
<stop offset="0.23" stop-color="#F1D99C"/>
<stop offset="0.33" stop-color="#F5F7BB"/>
<stop offset="0.58" stop-color="#DBB054"/>
<stop offset="0.74" stop-color="#F3C954"/>
<stop offset="0.84" stop-color="#F1CF65"/>
<stop offset="0.96" stop-color="#A86A18"/>
</linearGradient>
<linearGradient id="paint11_linear_16072_1072" x1="283.54" y1="224.525" x2="261.997" y2="260.782" gradientUnits="userSpaceOnUse">
<stop stop-color="white"/>
<stop offset="1" stop-color="#A36D00"/>
</linearGradient>
<linearGradient id="paint12_linear_16072_1072" x1="206.063" y1="253.596" x2="206.063" y2="296.287" gradientUnits="userSpaceOnUse">
<stop stop-color="#A86A18"/>
<stop offset="0.12" stop-color="#F5CE5B"/>
<stop offset="0.23" stop-color="#F1D99C"/>
<stop offset="0.33" stop-color="#F5F7BB"/>
<stop offset="0.58" stop-color="#DBB054"/>
<stop offset="0.74" stop-color="#F3C954"/>
<stop offset="0.84" stop-color="#F1CF65"/>
<stop offset="0.96" stop-color="#A86A18"/>
</linearGradient>
<linearGradient id="paint13_linear_16072_1072" x1="230.788" y1="271.767" x2="267.627" y2="268.927" gradientUnits="userSpaceOnUse">
<stop stop-color="white"/>
<stop offset="1" stop-color="#A36D00"/>
</linearGradient>
<linearGradient id="paint14_linear_16072_1072" x1="251.184" y1="333.759" x2="297.109" y2="333.759" gradientUnits="userSpaceOnUse">
<stop stop-color="#A86A18"/>
<stop offset="0.12" stop-color="#F5CE5B"/>
<stop offset="0.23" stop-color="#F1D99C"/>
<stop offset="0.33" stop-color="#F5F7BB"/>
<stop offset="0.58" stop-color="#DBB054"/>
<stop offset="0.74" stop-color="#F3C954"/>
<stop offset="0.84" stop-color="#F1CF65"/>
<stop offset="0.96" stop-color="#A86A18"/>
</linearGradient>
<linearGradient id="paint15_linear_16072_1072" x1="277.791" y1="312.045" x2="265.899" y2="278.03" gradientUnits="userSpaceOnUse">
<stop stop-color="white"/>
<stop offset="1" stop-color="#A36D00"/>
</linearGradient>
<linearGradient id="paint16_linear_16072_1072" x1="333.28" y1="250.208" x2="333.28" y2="303.901" gradientUnits="userSpaceOnUse">
<stop stop-color="#A86A18"/>
<stop offset="0.12" stop-color="#F5CE5B"/>
<stop offset="0.23" stop-color="#F1D99C"/>
<stop offset="0.33" stop-color="#F5F7BB"/>
<stop offset="0.58" stop-color="#DBB054"/>
<stop offset="0.74" stop-color="#F3C954"/>
<stop offset="0.84" stop-color="#F1CF65"/>
<stop offset="0.96" stop-color="#A86A18"/>
</linearGradient>
<linearGradient id="paint17_linear_16072_1072" x1="312.764" y1="281.845" x2="281.024" y2="263.725" gradientUnits="userSpaceOnUse">
<stop stop-color="white"/>
<stop offset="1" stop-color="#A36D00"/>
</linearGradient>
</defs>
</svg>
