<svg width="543" height="543" viewBox="0 0 543 543" fill="none" xmlns="http://www.w3.org/2000/svg">
<path d="M271.509 10.5042V67.3284C259.428 67.3284 247.605 68.3892 236.073 70.4254L226.183 14.4567C240.915 11.873 256.041 10.5213 271.509 10.5213V10.5042Z" fill="#0E0F12"/>
<path d="M182.242 26.2456L201.663 79.6306C190.438 83.72 179.659 88.7848 169.426 94.7392L141.04 45.5634C154.095 37.9492 167.869 31.4814 182.259 26.2456H182.242Z" fill="#0E0F12"/>
<path d="M103.826 71.6744L140.305 115.17C131.185 122.784 122.801 131.219 115.17 140.339L71.6748 103.825C81.4278 92.19 92.1733 81.4446 103.808 71.6915L103.826 71.6744Z" fill="#0E0F12"/>
<path d="M45.5458 141.04L94.7216 169.427C88.7671 179.659 83.7024 190.439 79.6301 201.663L26.2793 182.243C31.5151 167.887 37.9829 154.079 45.5629 141.023L45.5458 141.04Z" fill="#0E0F12"/>
<path d="M14.4731 226.149L70.4075 236.004C68.3714 247.537 67.3105 259.395 67.3105 271.509H10.5205C10.5205 256.041 11.8722 240.864 14.4559 226.149H14.4731Z" fill="#0E0F12"/>
<path d="M79.6131 341.354L26.2624 360.741C21.095 346.624 17.1082 331.978 14.4561 316.835L70.3905 306.979C72.4609 318.803 75.5579 330.301 79.596 341.354H79.6131Z" fill="#0E0F12"/>
<path d="M115.153 402.695L71.6918 439.175C61.9388 427.574 53.1611 415.135 45.5469 401.942L94.6885 373.59C100.677 383.891 107.539 393.661 115.153 402.695Z" fill="#0E0F12"/>
<path d="M169.427 448.295L141.074 497.471C127.882 489.857 115.443 481.079 103.842 471.326L140.322 427.831C149.373 435.479 159.126 442.358 169.427 448.295Z" fill="#0E0F12"/>
<path d="M236.038 472.609L226.183 528.544C211.057 525.892 196.359 521.922 182.26 516.755L201.68 463.404C212.734 467.442 224.215 470.539 236.055 472.627L236.038 472.609Z" fill="#0E0F12"/>
<path d="M306.962 472.609L316.818 528.544C302.103 531.128 286.96 532.496 271.492 532.496V475.723C283.589 475.723 295.43 474.663 306.945 472.626L306.962 472.609Z" fill="#0E0F12"/>
<path d="M373.574 448.295L401.943 497.471C388.888 505.051 375.114 511.519 360.775 516.755L341.354 463.404C352.579 459.332 363.359 454.25 373.591 448.295H373.574Z" fill="#0E0F12"/>
<path d="M427.848 402.661L471.343 439.141C461.573 450.81 450.81 461.539 439.175 471.309L402.695 427.814C411.815 420.199 420.234 411.764 427.865 402.644L427.848 402.661Z" fill="#0E0F12"/>
<path d="M463.369 341.354L516.72 360.758C511.484 375.113 505.017 388.887 497.437 401.943L448.261 373.591C454.215 363.358 459.28 352.579 463.352 341.354H463.369Z" fill="#0E0F12"/>
<path d="M475.689 271.509H532.479C532.479 286.943 531.11 302.068 528.526 316.8L472.592 306.979C474.628 295.447 475.689 283.623 475.689 271.509Z" fill="#0E0F12"/>
<path d="M528.526 226.2L472.592 236.055C470.521 224.215 467.424 212.734 463.369 201.68L516.72 182.26C521.887 196.376 525.857 211.057 528.509 226.2H528.526Z" fill="#0E0F12"/>
<path d="M497.437 141.041L448.261 169.427C442.324 159.126 435.445 149.373 427.831 140.322L471.326 103.842C481.079 115.443 489.823 127.883 497.437 141.041Z" fill="#0E0F12"/>
<path d="M360.758 26.2457L341.337 79.6307C330.284 75.5926 318.785 72.4956 306.962 70.4253L316.852 14.4565C331.978 17.1087 346.641 21.0954 360.758 26.2628V26.2457Z" fill="#0E0F12"/>
<path d="M439.158 71.6743L402.678 115.169C393.61 107.521 383.84 100.694 373.539 94.7051L401.926 45.5293C415.118 53.1435 427.557 61.9212 439.158 71.6743Z" fill="#0E0F12"/>
<path d="M532.461 271.509H475.671C475.671 259.394 474.61 247.571 472.574 236.038L528.509 226.183C531.092 240.898 532.461 256.041 532.461 271.509Z" fill="#7A88F0"/>
<path d="M472.591 306.979L528.526 316.801C525.874 331.926 521.904 346.641 516.737 360.758L463.386 341.354C467.424 330.301 470.521 318.803 472.608 306.979H472.591Z" fill="#FAFAFA"/>
<path d="M516.72 182.26L463.369 201.681C459.297 190.456 454.215 179.676 448.277 169.444L497.453 141.058C505.033 154.113 511.501 167.921 516.737 182.277L516.72 182.26Z" fill="#7A88F0"/>
<path d="M448.278 373.59L497.453 401.942C489.839 415.135 481.096 427.54 471.343 439.141L427.848 402.661C435.496 393.61 442.34 383.891 448.278 373.59Z" fill="#FAFAFA"/>
<path d="M471.327 103.842L427.832 140.322C420.183 131.202 411.782 122.783 402.662 115.152L439.142 71.6569C450.777 81.4099 461.557 92.1896 471.31 103.825L471.327 103.842Z" fill="#7FBCDD"/>
<path d="M402.678 427.831L439.158 471.326C427.557 481.079 415.117 489.857 401.925 497.471L373.556 448.295C383.856 442.341 393.626 435.479 402.661 427.831H402.678Z" fill="#49D8BC"/>
<path d="M401.925 45.5292L373.539 94.705C363.341 88.7848 352.561 83.72 341.337 79.6306L360.757 26.2456C375.096 31.4814 388.87 37.9492 401.925 45.5292Z" fill="#FF6B5F"/>
<path d="M341.337 463.386L360.758 516.737C346.641 521.905 331.96 525.874 316.818 528.526L306.962 472.592C318.802 470.522 330.284 467.425 341.337 463.369V463.386Z" fill="#49D8BC"/>
<path d="M316.852 14.4567L306.962 70.4254C295.429 68.3892 283.606 67.3284 271.509 67.3284V10.5042C286.977 10.5042 302.137 11.8559 316.869 14.4396L316.852 14.4567Z" fill="#FF6B5F"/>
<path d="M271.509 475.706V532.479C256.041 532.479 240.898 531.127 226.183 528.526L236.038 472.592C247.571 474.628 259.394 475.689 271.509 475.689V475.706Z" fill="#49D8BC"/>
<path d="M226.167 14.4567L236.056 70.4254C224.216 72.4958 212.7 75.5928 201.647 79.6309L182.227 26.2459C196.343 21.0785 211.024 17.1088 226.149 14.4396L226.167 14.4567Z" fill="#FF6B5F"/>
<path d="M201.664 463.387L182.243 516.738C167.887 511.502 154.131 505.034 141.075 497.454L169.427 448.278C179.66 454.233 190.439 459.298 201.664 463.387Z" fill="#49D8BC"/>
<path d="M141.023 45.5635L169.409 94.7393C159.108 100.694 149.355 107.555 140.304 115.169L103.824 71.6742C115.425 61.9212 127.83 53.1777 141.023 45.5635Z" fill="#FF6B5F"/>
<path d="M140.321 427.831L103.842 471.326C92.2065 461.573 81.461 450.828 71.708 439.192L115.169 402.713C122.817 411.833 131.219 420.217 140.321 427.848V427.831Z" fill="#F6FF00"/>
<path d="M71.6918 103.825L115.187 140.339C107.539 149.39 100.66 159.143 94.7227 169.444L45.5469 141.058C53.1611 127.865 61.9388 115.426 71.6918 103.825Z" fill="#FF6B5F"/>
<path d="M94.6879 373.59L45.5463 401.943C37.9663 388.887 31.4643 375.113 26.2627 360.74L79.6135 341.354C83.7029 352.561 88.7676 363.358 94.6708 373.59H94.6879Z" fill="#F6FF00"/>
<path d="M26.2794 182.26L79.6302 201.68C75.5921 212.734 72.4951 224.181 70.4247 236.021L14.4902 226.165C17.1424 211.04 21.1291 196.376 26.2965 182.26H26.2794Z" fill="#F6FF00"/>
<path d="M70.408 306.979L14.4735 316.835C11.8898 302.12 10.5381 286.977 10.5381 271.509H67.3281C67.3281 283.606 68.3889 295.447 70.4251 306.979H70.408Z" fill="#F6FF00"/>
<path d="M402 427L358.5 375.5C389.3 348.3 402.667 310.5 405.5 295L470 306.5C466.8 342.9 423.333 402.333 402 427Z" fill="#FAFAFA"/>
<path d="M470.842 307.485L404.301 296.679C409.993 255.984 395.549 218.582 387.616 204.968L444.079 171.735C465.332 201.459 470.993 274.873 470.842 307.485Z" fill="#7A88F0"/>
<path d="M400.845 426.684L357.368 374.664C335.669 393.622 332.451 394.567 275.366 407.438C250.907 412.953 200.391 393.344 182.278 374.778L142.932 424.401C160.215 444.982 221.368 475.488 270.051 472.381C351.906 467.158 370.613 447.891 400.845 426.684Z" fill="#49D8BC"/>
<path d="M272.346 410.378H270.652V541H272.346V410.378Z" fill="#0E0F12"/>
<path d="M98 170.285L153.168 203C171.223 167.265 210.897 134.551 266.514 134.551C307.554 134.551 338.332 154.073 358.835 167.078L359.5 167.5L399 118C381.781 97.3645 353.88 77.6775 272.031 69.6246C190.181 61.5718 121.906 133.376 98 170.285Z" fill="#FF6B5F"/>
<path d="M400 118L358.5 168.5C372.5 178.1 384 196.5 388 204.5L446 171L400 118Z" fill="#7FBCDD" stroke="#0E0F12"/>
<path d="M141.5 427L185 375C162.5 357 161 354 138.225 300.096C128.467 277 138.821 223.81 153.887 202.696L98.0821 172.758C80.8856 193.412 61.6899 259 73.3669 306.364C93.0002 386 115.275 401 141.5 427Z" fill="#F6FF00"/>
<path d="M272.346 2H270.652V132.622H272.346V2Z" fill="#0E0F12"/>
<path d="M317.468 537.048L294.779 408.428L296.456 408.137L319.128 536.757L317.468 537.048Z" fill="#0E0F12"/>
<path d="M225.547 5.94242L223.879 6.23657L246.561 134.874L248.229 134.58L225.547 5.94242Z" fill="#0E0F12"/>
<path d="M362.879 525.036L318.203 402.302L319.794 401.72L364.47 524.454L362.879 525.036Z" fill="#0E0F12"/>
<path d="M180.129 17.9717L178.537 18.551L223.213 141.296L224.804 140.716L180.129 17.9717Z" fill="#0E0F12"/>
<path d="M341.643 391.286L340.176 392.133L405.521 505.314L406.988 504.467L341.643 391.286Z" fill="#0E0F12"/>
<path d="M137.482 37.6889L136.015 38.5359L201.36 151.717L202.827 150.87L137.482 37.6889Z" fill="#0E0F12"/>
<path d="M361.365 377.265L360.067 378.354L444.085 478.481L445.382 477.393L361.365 377.265Z" fill="#0E0F12"/>
<path d="M98.9265 64.4968L97.6289 65.5857L181.635 165.7L182.933 164.612L98.9265 64.4968Z" fill="#0E0F12"/>
<path d="M378.374 360.064L377.285 361.362L477.413 445.379L478.502 444.082L378.374 360.064Z" fill="#0E0F12"/>
<path d="M164.635 182.944L64.5039 98.9142L65.599 97.6138L165.73 181.644L164.635 182.944Z" fill="#0E0F12"/>
<path d="M392.132 340.176L391.285 341.643L504.452 406.98L505.299 405.513L392.132 340.176Z" fill="#0E0F12"/>
<path d="M38.5345 136.017L37.6875 137.484L150.869 202.829L151.716 201.362L38.5345 136.017Z" fill="#0E0F12"/>
<path d="M402.282 318.164L401.697 319.771L524.442 364.447L525.027 362.839L402.282 318.164Z" fill="#0E0F12"/>
<path d="M18.5452 178.531L17.9658 180.123L140.694 224.793L141.274 223.201L18.5452 178.531Z" fill="#0E0F12"/>
<path d="M408.437 294.808L408.143 296.476L536.78 319.158L537.074 317.49L408.437 294.808Z" fill="#0E0F12"/>
<path d="M6.24532 223.853L5.95117 225.521L134.589 248.203L134.883 246.535L6.24532 223.853Z" fill="#0E0F12"/>
<path d="M541 270.653H410.378V272.347H541V270.653Z" fill="#0E0F12"/>
<path d="M132.622 270.653H2V272.364H132.622V270.653Z" fill="#0E0F12"/>
<path d="M536.757 223.837L408.131 246.586L408.426 248.254L537.052 225.505L536.757 223.837Z" fill="#0E0F12"/>
<path d="M134.589 294.732L5.96289 317.482L6.25792 319.15L134.884 296.4L134.589 294.732Z" fill="#0E0F12"/>
<path d="M402.302 224.797L401.721 223.205L524.472 178.53L525.037 180.121L402.302 224.797Z" fill="#0E0F12"/>
<path d="M140.708 318.18L17.9785 362.898L18.5584 364.49L141.287 319.772L140.708 318.18Z" fill="#0E0F12"/>
<path d="M504.473 135.98L391.292 201.325L392.139 202.792L505.32 137.447L504.473 135.98Z" fill="#0E0F12"/>
<path d="M150.914 340.204L37.6875 405.471L38.5335 406.938L151.76 341.672L150.914 340.204Z" fill="#0E0F12"/>
<path d="M477.315 97.5258L377.378 181.77L378.47 183.065L478.407 98.8209L477.315 97.5258Z" fill="#0E0F12"/>
<path d="M164.577 360.057L64.5225 444.162L65.6124 445.459L165.667 361.354L164.577 360.057Z" fill="#0E0F12"/>
<path d="M444.115 64.5373L360.074 164.623L361.371 165.712L445.413 65.6266L444.115 64.5373Z" fill="#0E0F12"/>
<path d="M181.619 377.26L97.6367 477.418L98.9347 478.506L182.917 378.349L181.619 377.26Z" fill="#0E0F12"/>
<path d="M405.563 37.7293L340.158 150.876L341.625 151.724L407.029 38.5771L405.563 37.7293Z" fill="#0E0F12"/>
<path d="M201.379 391.35L135.975 504.497L137.441 505.345L202.846 392.198L201.379 391.35Z" fill="#0E0F12"/>
<path d="M319.794 141.297L318.203 140.699L362.879 17.9473L364.487 18.5461L319.794 141.297Z" fill="#0E0F12"/>
<path d="M180.121 525.053L178.529 524.454L223.205 401.72L224.796 402.302L180.121 525.053Z" fill="#0E0F12"/>
<path d="M317.624 5.97086L294.628 134.553L296.295 134.851L319.292 6.26908L317.624 5.97086Z" fill="#0E0F12"/>
<path d="M225.55 537.048L223.873 536.757L246.545 408.137L248.221 408.428L225.55 537.048Z" fill="#0E0F12"/>
<path d="M271.51 534.173C126.669 534.173 8.82812 416.332 8.82812 271.491C8.82812 126.65 126.669 8.8269 271.51 8.8269C416.351 8.8269 534.191 126.667 534.191 271.491C534.191 416.315 416.351 534.173 271.51 534.173ZM271.51 12.2148C128.534 12.2148 12.216 128.532 12.216 271.491C12.216 414.45 128.534 530.768 271.493 530.768C414.452 530.768 530.769 414.45 530.769 271.491C530.769 128.532 414.469 12.2148 271.51 12.2148Z" fill="#DCB359"/>
<path d="M271.509 477.383C157.98 477.383 65.6172 385.02 65.6172 271.491C65.6172 157.962 157.98 65.6167 271.509 65.6167C385.037 65.6167 477.4 157.98 477.4 271.491C477.4 385.003 385.037 477.383 271.509 477.383ZM271.509 69.0217C159.862 69.0217 69.0222 159.845 69.0222 271.491C69.0222 383.138 159.862 473.978 271.509 473.978C383.155 473.978 473.995 383.138 473.995 271.491C473.995 159.845 383.155 69.0217 271.509 69.0217Z" fill="#DCB359"/>
<path d="M271.508 131.622C194.386 131.622 131.639 194.37 131.639 271.492C131.639 348.614 194.386 411.361 271.508 411.361C348.63 411.361 411.378 348.614 411.378 271.492C411.378 194.37 348.63 131.622 271.508 131.622ZM271.508 402.568C199.238 402.568 140.432 343.762 140.432 271.492C140.432 199.221 199.238 140.415 271.508 140.415C343.778 140.415 402.585 199.221 402.585 271.492C402.585 343.762 343.778 402.568 271.508 402.568Z" fill="#DCB359" stroke="#0E0F12" stroke-width="2"/>
<path d="M271.509 66.3108C158.369 66.3108 66.3281 158.351 66.3281 271.491C66.3281 384.631 158.369 476.689 271.509 476.689C384.649 476.689 476.689 384.648 476.689 271.491C476.689 158.334 384.648 66.3108 271.509 66.3108ZM271.509 466.168C164.162 466.168 76.8492 378.838 76.8492 271.491C76.8492 164.144 164.179 76.8319 271.509 76.8319C378.839 76.8319 466.168 164.161 466.168 271.491C466.168 378.821 378.838 466.168 271.509 466.168Z" fill="#DCB359" stroke="#0E0F12" stroke-width="2"/>
<path d="M271.509 1C122.112 1 1 122.111 1 271.492C1 420.872 122.111 542 271.492 542C420.872 542 541.983 420.889 541.983 271.492C541.983 122.094 420.889 1 271.509 1ZM271.509 531.479C128.161 531.479 11.5211 414.856 11.5211 271.492C11.5211 128.127 128.144 11.5211 271.509 11.5211C414.874 11.5211 531.496 128.144 531.496 271.492C531.496 414.839 414.856 531.479 271.509 531.479Z" fill="#DCB359" stroke="#0E0F12" stroke-width="2"/>
<path d="M374.524 66.2264L376.562 70.9225L363.855 76.4496L358.34 63.7391L363.035 61.6968L366.501 69.7415L374.524 66.2264ZM382.537 62.7421L384.603 67.4489L379.91 69.4909L377.871 64.7949L382.537 62.7421ZM371.047 58.212L373.096 62.8778L368.401 64.9201L366.352 60.2531L371.045 58.2127L371.047 58.212ZM359.556 53.6814L361.566 58.3662L356.914 60.3897L354.862 55.7229L359.556 53.6814ZM375.583 46.7103L381.109 59.3934L376.415 61.4333L372.937 53.4184L364.915 56.9334L362.876 52.2374L375.582 46.711L375.583 46.7103Z" fill="black"/>
<path d="M481.438 180.144L479.458 184.866L466.676 179.515L472.037 166.739L476.76 168.716L473.35 176.784L481.438 180.144ZM489.498 183.519L487.529 188.267L482.808 186.292L484.788 181.571L489.498 183.519ZM484.819 172.089L482.868 176.797L478.145 174.82L480.097 170.112L484.818 172.089L484.819 172.089ZM480.14 160.658L478.148 165.351L473.469 163.392L475.418 158.682L480.14 160.658ZM496.262 167.407L490.928 180.172L486.207 178.194L489.588 170.137L481.5 166.777L483.48 162.056L496.26 167.406L496.262 167.407Z" fill="black"/>
<path d="M492.365 336.687L487.991 339.349L480.779 327.517L492.616 320.315L495.281 324.688L487.786 329.221L492.365 336.687ZM496.912 344.149L492.532 346.839L489.867 342.47L494.24 339.808L496.912 344.149ZM499.829 332.148L495.487 334.816L492.822 330.443L497.165 327.776L499.828 332.146L499.829 332.148ZM502.746 320.145L498.38 322.777L495.739 318.445L500.082 315.775L502.746 320.145ZM511.842 335.069L500.034 342.277L497.371 337.906L504.836 333.365L500.257 325.898L504.63 323.237L511.841 335.067L511.842 335.069Z" fill="black"/>
<path d="M399.7 465.605L394.667 464.671L397.186 451.045L410.808 453.575L409.877 458.611L401.269 456.988L399.7 465.605ZM398.111 474.197L393.053 473.28L393.983 468.247L399.016 469.182L398.111 474.197ZM408.289 467.202L403.275 466.293L404.206 461.258L409.221 462.168L408.289 467.2L408.289 467.202ZM418.468 460.206L413.46 459.254L414.382 454.265L419.399 455.172L418.468 460.206ZM415.291 477.392L401.685 474.885L402.618 469.853L411.208 471.448L412.777 462.831L417.81 463.766L415.292 477.39L415.291 477.392Z" fill="black"/>
<path d="M245.142 500.1L241.795 496.227L252.273 487.159L261.331 497.644L257.459 500.994L251.75 494.351L245.142 500.1ZM238.534 505.817L235.158 501.942L239.027 498.592L242.374 502.466L238.534 505.817ZM250.852 506.712L247.504 502.87L251.376 499.519L254.724 503.362L250.854 506.71L250.852 506.712ZM263.172 507.606L259.855 503.735L263.691 500.415L267.042 504.256L263.172 507.606ZM249.956 519.043L240.896 508.587L244.768 505.239L250.479 511.851L257.087 506.101L260.434 509.975L249.957 519.042L249.956 519.043Z" fill="black"/>
<path d="M104.774 428.526L104.558 423.411L118.403 422.818L118.984 436.661L113.868 436.88L113.524 428.128L104.774 428.526ZM96.0441 428.9L95.8068 423.765L100.92 423.545L101.135 428.66L96.0441 428.9ZM105.14 437.255L104.903 432.164L110.019 431.945L110.254 437.036L105.141 437.255L105.14 437.255ZM114.236 445.611L114.043 440.516L119.111 440.299L119.35 445.391L114.236 445.611ZM96.7744 446.359L96.1733 432.538L101.287 432.32L101.654 441.049L110.403 440.651L110.619 445.766L96.7763 446.359L96.7744 446.359Z" fill="black"/>
<path d="M42.668 285.315L45.9414 281.379L56.602 290.232L47.7408 300.884L43.8016 297.612L49.4211 290.893L42.668 285.315ZM35.9464 279.732L39.2171 275.767L43.1548 279.036L39.8813 282.972L35.9464 279.732ZM37.0802 292.031L40.3218 288.099L44.261 291.37L41.018 295.302L37.0816 292.032L37.0802 292.031ZM38.214 304.33L41.4903 300.425L45.3932 303.666L42.1518 307.6L38.214 304.33ZM24.7683 293.164L33.6003 282.516L37.5368 285.787L31.9491 292.504L38.7023 298.081L35.4289 302.017L24.7697 293.165L24.7683 293.164Z" fill="black"/>
<path d="M86.1822 134.07L91.257 133.394L93.0942 147.129L79.3595 148.954L78.6806 143.879L87.3668 142.748L86.1822 134.07ZM85.0247 125.409L90.1172 124.71L90.7967 129.782L85.7219 130.458L85.0247 125.409ZM77.5222 135.219L82.5708 134.526L83.2496 139.601L78.2 140.294L77.5225 135.221L77.5222 135.219ZM70.019 145.031L75.0751 144.38L75.7477 149.409L70.6976 150.104L70.019 145.031ZM67.7017 127.708L81.4132 125.865L82.09 130.938L73.4291 132.089L74.6137 140.767L69.539 141.443L67.702 127.709L67.7017 127.708Z" fill="black"/>
<path d="M218.554 47.5915L223.065 50.0134L216.518 62.2265L204.312 55.6695L206.731 51.1567L214.437 55.322L218.554 47.5915ZM222.684 39.8909L227.222 42.3043L224.805 46.8151L220.295 44.3932L222.684 39.8909ZM210.859 43.4564L215.359 45.8481L212.94 50.3609L208.439 47.968L210.858 43.4581L210.859 43.4564ZM199.033 47.0223L203.514 49.4531L201.117 53.9244L196.615 51.5335L199.033 47.0223ZM207.291 31.6185L219.488 38.1474L217.068 42.6577L209.371 38.523L205.254 46.2535L200.744 43.8316L207.29 31.6202L207.291 31.6185Z" fill="black"/>
<path d="M336.049 44.3168L336.906 40.9734L344.548 42.9326L345.853 37.8426L325.05 32.5087L323.745 37.5987L331.386 39.5579L330.529 42.9013C324.249 41.5969 319.261 41.6278 318.884 43.0999C318.507 44.572 322.864 46.9987 328.997 48.8771L326.254 59.5748L331.78 60.9918L334.523 50.2941C340.797 51.597 345.772 51.5629 346.149 50.0908C346.52 48.6171 342.176 46.1935 336.049 44.3168ZM334.755 49.3896C334.598 49.3559 333.786 49.2011 332.002 48.7437C330.574 48.3774 329.585 48.0841 329.235 47.9742L329.233 47.9804C323.812 46.3313 319.959 44.3261 320.252 43.1846C320.544 42.0431 324.881 42.1379 330.433 43.3021L329.479 47.0198C329.835 47.1375 330.842 47.4622 332.264 47.8269C333.967 48.2635 334.839 48.414 335.006 48.4369L335.962 44.7067C341.377 46.3542 345.218 48.3562 344.925 49.4977C344.62 50.636 340.29 50.5428 334.755 49.3896Z" fill="white"/>
<path d="M437.58 441.472L440.024 443.91L434.453 449.495L438.174 453.206L453.339 438L449.619 434.289L444.048 439.874L441.604 437.437C445.919 432.691 448.427 428.38 447.351 427.307C446.275 426.234 441.971 428.753 437.236 433.081L429.417 425.282L425.388 429.322L433.207 437.121C428.897 441.862 426.398 446.164 427.474 447.237C428.555 448.305 432.85 445.795 437.58 441.472ZM433.868 437.78C433.978 437.661 434.523 437.041 435.824 435.737C436.865 434.693 437.62 433.991 437.893 433.745L437.888 433.74C442.063 429.91 445.748 427.61 446.583 428.442C447.417 429.274 445.132 432.961 441.308 437.151L438.59 434.44C438.308 434.687 437.517 435.389 436.48 436.429C435.239 437.673 434.666 438.348 434.561 438.48L437.288 441.199C433.118 445.025 429.442 447.316 428.607 446.484C427.782 445.643 430.063 441.96 433.868 437.78Z" fill="white"/>
<path d="M44.5099 329.193L41.1977 330.164L38.9786 322.595L33.9361 324.073L39.9778 344.681L45.0202 343.203L42.801 335.633L46.1132 334.662C48.1999 340.727 50.7742 344.999 52.2325 344.571C53.6909 344.144 53.5513 339.158 52.0331 332.927L62.6308 329.82L61.0257 324.345L50.428 327.452C48.343 321.393 45.7724 317.133 44.3141 317.561C42.8576 317.995 42.9935 322.968 44.5099 329.193ZM49.532 327.714C49.5835 327.867 49.8648 328.643 50.3829 330.411C50.7977 331.826 51.0505 332.825 51.1352 333.183L51.1414 333.181C52.4928 338.684 52.7376 343.021 51.6067 343.352C50.4759 343.684 48.342 339.907 46.5068 334.54L50.1898 333.46C50.1094 333.095 49.8741 332.063 49.4611 330.654C48.9665 328.967 48.6504 328.141 48.5847 327.985L44.8894 329.069C43.5399 323.572 43.2987 319.248 44.4296 318.916C45.564 318.597 47.6961 322.367 49.532 327.714Z" fill="white"/>
<path d="M465.775 138.883L468.619 136.927L473.089 143.427L477.419 140.449L465.25 122.754L460.92 125.731L465.39 132.231L462.546 134.187C458.672 129.075 454.893 125.82 453.641 126.681C452.389 127.542 454.076 132.235 457.463 137.682L448.363 143.94L451.596 148.641L460.696 142.383C464.567 147.49 468.337 150.735 469.59 149.874C470.838 149.007 469.158 144.325 465.775 138.883ZM461.465 141.854C461.369 141.725 460.859 141.075 459.815 139.558C458.98 138.343 458.428 137.472 458.236 137.159L458.231 137.162C455.23 132.356 453.645 128.312 454.616 127.644C455.587 126.976 458.792 129.899 462.21 134.426L459.048 136.6C459.238 136.923 459.783 137.829 460.615 139.039C461.611 140.488 462.17 141.174 462.281 141.301L465.454 139.119C468.45 143.92 470.028 147.954 469.057 148.622C468.079 149.279 464.877 146.362 461.465 141.854Z" fill="white"/>
<path d="M289.21 507.144L289.449 510.587L281.58 511.134L281.944 516.376L303.368 514.888L303.004 509.646L295.135 510.192L294.895 506.749C301.267 506.01 305.991 504.41 305.885 502.894C305.78 501.378 300.881 500.446 294.468 500.595L293.703 489.578L288.011 489.973L288.776 500.99C282.411 501.729 277.701 503.328 277.806 504.844C277.918 506.359 282.804 507.292 289.21 507.144ZM288.841 501.922C289.001 501.904 289.82 501.795 291.657 501.668C293.128 501.566 294.159 501.533 294.526 501.527L294.526 501.52C300.19 501.379 304.479 502.068 304.561 503.244C304.642 504.42 300.496 505.695 294.861 506.338L294.595 502.51C294.22 502.51 293.162 502.519 291.698 502.62C289.944 502.742 289.069 502.874 288.903 502.905L289.17 506.746C283.512 506.888 279.236 506.197 279.154 505.021C279.086 503.845 283.225 502.57 288.841 501.922Z" fill="white"/>
<path d="M59.2639 167.524L56.1297 166.078L59.4342 158.915L54.6628 156.714L45.6666 176.214L50.438 178.416L53.7424 171.253L56.8766 172.699C54.4615 178.641 53.593 183.552 54.973 184.188C56.3529 184.825 59.5253 180.977 62.4783 175.283L72.5064 179.909L74.8963 174.728L64.8683 170.102C67.2806 164.166 68.1437 159.266 66.7638 158.63C65.3811 157.999 62.2142 161.836 59.2639 167.524ZM64.0204 169.711C63.9588 169.86 63.6603 170.63 62.8888 172.302C62.2711 173.641 61.8044 174.561 61.6331 174.886L61.639 174.888C59.0398 179.923 56.3729 183.352 55.3029 182.858C54.2328 182.365 55.1077 178.116 57.2535 172.865L60.7385 174.473C60.9183 174.145 61.4192 173.213 62.0342 171.88C62.7706 170.283 63.0759 169.452 63.1285 169.292L59.6318 167.679C62.2282 162.651 64.8897 159.233 65.9598 159.727C67.0245 160.232 66.1522 164.475 64.0204 169.711Z" fill="white"/>
<path d="M506.596 295.028L510.022 295.448L509.063 303.278L514.279 303.916L516.89 282.6L511.674 281.961L510.715 289.791L507.289 289.372C507.774 282.976 507.101 278.034 505.593 277.849C504.084 277.665 502.239 282.298 501.166 288.622L490.204 287.279L489.51 292.942L500.472 294.285C499.988 300.674 500.663 305.603 502.171 305.788C503.68 305.966 505.524 301.346 506.596 295.028ZM501.399 294.398C501.412 294.238 501.461 293.413 501.685 291.585C501.864 290.121 502.028 289.103 502.092 288.742L502.085 288.741C503.023 283.153 504.515 279.073 505.685 279.217C506.854 279.36 507.319 283.673 506.879 289.328L503.07 288.861C502.999 289.229 502.806 290.269 502.628 291.727C502.414 293.472 502.377 294.356 502.376 294.524L506.198 294.992C505.262 300.574 503.771 304.641 502.602 304.497C501.433 304.341 500.968 300.035 501.399 294.398Z" fill="white"/>
<path d="M133.986 463.953L131.883 466.69L125.627 461.885L122.426 466.053L139.459 479.133L142.659 474.966L136.403 470.161L138.505 467.424C143.767 471.091 148.365 473.023 149.291 471.818C150.217 470.613 147.164 466.669 142.263 462.531L148.99 453.772L144.465 450.297L137.738 459.056C132.481 455.392 127.893 453.468 126.968 454.674C126.047 455.883 129.089 459.819 133.986 463.953ZM137.169 459.797C137.301 459.889 137.986 460.351 139.447 461.472C140.616 462.371 141.41 463.029 141.689 463.268L141.693 463.263C146.029 466.909 148.785 470.268 148.067 471.202C147.349 472.137 143.399 470.345 138.751 467.093L141.089 464.049C140.808 463.801 140.01 463.107 138.846 462.213C137.451 461.142 136.709 460.661 136.564 460.574L134.219 463.628C129.887 459.985 127.142 456.635 127.86 455.7C128.588 454.773 132.533 456.561 137.169 459.797Z" fill="white"/>
<path d="M174.188 54.4853L172.799 51.3258L180.02 48.1502L177.905 43.3402L158.246 51.9854L160.361 56.7955L167.582 53.6199L168.972 56.7795C163.226 59.63 159.321 62.7328 159.933 64.124C160.545 65.5151 165.471 64.7348 171.455 62.4266L175.901 72.536L181.123 70.2392L176.678 60.1298C182.418 57.2819 186.31 54.1843 185.699 52.7931C185.081 51.4046 180.167 52.1797 174.188 54.4853ZM176.302 59.2751C176.157 59.3458 175.423 59.7248 173.737 60.4662C172.388 61.0598 171.429 61.4392 171.085 61.5693L171.088 61.5752C165.805 63.6239 161.536 64.4251 161.061 63.3464C160.587 62.2677 164.057 59.6653 169.143 57.1542L170.688 60.6674C171.041 60.5406 172.033 60.1744 173.377 59.5834C174.987 58.8757 175.766 58.4557 175.911 58.3706L174.361 54.8456C179.638 52.7995 183.895 52.0034 184.37 53.0821C184.832 54.1661 181.368 56.7659 176.302 59.2751Z" fill="white"/>
<path d="M249.718 21.594L250.515 34.7908L261.971 39.1009L249.718 21.594Z" fill="white" fill-opacity="0.602"/>
<path d="M249.718 21.594L239.661 40.4491L250.516 34.7909L249.718 21.594Z" fill="white"/>
<path d="M251.335 48.327L251.877 57.294L262.105 41.1776L251.335 48.327Z" fill="white" fill-opacity="0.602"/>
<path d="M251.876 57.2939L251.334 48.3254L239.787 42.5261L251.876 57.2939Z" fill="white"/>
<path d="M251.209 46.2514L261.972 39.1009L250.517 34.7938L251.209 46.2514Z" fill="white" fill-opacity="0.2"/>
<path d="M239.661 40.4492L251.208 46.2514L250.516 34.7939L239.661 40.4492Z" fill="white" fill-opacity="0.602"/>
<path d="M414.104 66.186L406.786 77.1969L413.329 87.5407L414.104 66.186Z" fill="white" fill-opacity="0.602"/>
<path d="M414.105 66.1861L394.715 75.1694L406.787 77.1969L414.105 66.1861Z" fill="white"/>
<path d="M399.281 88.4913L394.308 95.9729L412.184 89.2782L399.281 88.4913Z" fill="white" fill-opacity="0.602"/>
<path d="M394.308 95.9729L399.281 88.49L393.563 76.9028L394.308 95.9729Z" fill="white"/>
<path d="M400.432 86.7594L413.329 87.541L406.785 77.1997L400.432 86.7594Z" fill="white" fill-opacity="0.2"/>
<path d="M394.715 75.1697L400.432 86.7594L406.785 77.1997L394.715 75.1697Z" fill="white" fill-opacity="0.602"/>
<path d="M512.427 206.815L499.633 210.147L497.617 222.219L512.427 206.815Z" fill="white" fill-opacity="0.602"/>
<path d="M512.427 206.815L491.984 200.59L499.633 210.147L512.427 206.815Z" fill="white"/>
<path d="M486.51 213.565L477.816 215.829L495.605 222.751L486.51 213.565Z" fill="white" fill-opacity="0.602"/>
<path d="M477.817 215.829L486.511 213.565L489.971 201.115L477.817 215.829Z" fill="white"/>
<path d="M488.522 213.041L497.617 222.22L499.63 210.148L488.522 213.041Z" fill="white" fill-opacity="0.2"/>
<path d="M491.984 200.591L488.522 213.041L499.63 210.148L491.984 200.591Z" fill="white" fill-opacity="0.602"/>
<path d="M499.278 377.358L487.126 372.151L478.135 380.456L499.278 377.358Z" fill="white" fill-opacity="0.602"/>
<path d="M499.278 377.358L486.938 359.912L487.126 372.151L499.278 377.358Z" fill="white"/>
<path d="M474.661 366.811L466.403 363.273L476.219 379.644L474.661 366.811Z" fill="white" fill-opacity="0.602"/>
<path d="M466.403 363.273L474.662 366.812L485.024 359.093L466.403 363.273Z" fill="white"/>
<path d="M476.572 367.63L478.135 380.457L487.123 372.151L476.572 367.63Z" fill="white" fill-opacity="0.2"/>
<path d="M486.937 359.913L476.572 367.63L487.123 372.151L486.937 359.913Z" fill="white" fill-opacity="0.602"/>
<path d="M376.964 500.187L371.5 488.148L359.261 488.219L376.964 500.187Z" fill="white" fill-opacity="0.602"/>
<path d="M376.964 500.186L379.613 478.982L371.5 488.148L376.964 500.186Z" fill="white"/>
<path d="M365.894 475.799L362.181 467.619L358.393 486.328L365.894 475.799Z" fill="white" fill-opacity="0.602"/>
<path d="M362.181 467.619L365.895 475.801L378.752 477.087L362.181 467.619Z" fill="white"/>
<path d="M366.754 477.693L359.26 488.219L371.498 488.145L366.754 477.693Z" fill="white" fill-opacity="0.2"/>
<path d="M379.612 478.982L366.754 477.693L371.498 488.145L379.612 478.982Z" fill="white" fill-opacity="0.602"/>
<path d="M207.83 514.423L211.123 501.619L201.545 494L207.83 514.423Z" fill="white" fill-opacity="0.602"/>
<path d="M207.83 514.423L223.19 499.567L211.123 501.619L207.83 514.423Z" fill="white"/>
<path d="M214.499 488.485L216.737 479.785L202.054 491.982L214.499 488.485Z" fill="white" fill-opacity="0.602"/>
<path d="M216.738 479.785L214.5 488.487L223.708 497.551L216.738 479.785Z" fill="white"/>
<path d="M213.982 490.499L201.544 494L211.123 501.616L213.982 490.499Z" fill="white" fill-opacity="0.2"/>
<path d="M223.189 499.567L213.982 490.499L211.123 501.616L223.189 499.567Z" fill="white" fill-opacity="0.602"/>
<path d="M66.5879 415.107L77.2707 407.318L74.722 395.347L66.5879 415.107Z" fill="white" fill-opacity="0.602"/>
<path d="M66.5876 415.107L87.8893 413.406L77.2704 407.317L66.5876 415.107Z" fill="white"/>
<path d="M88.2278 399.328L95.4865 394.035L76.3986 394.114L88.2278 399.328Z" fill="white" fill-opacity="0.602"/>
<path d="M95.4863 394.035L88.2263 399.329L89.5703 412.18L95.4863 394.035Z" fill="white"/>
<path d="M86.5473 400.553L74.7213 395.346L77.2725 407.315L86.5473 400.553Z" fill="white" fill-opacity="0.2"/>
<path d="M87.8887 413.406L86.5471 400.553L77.2722 407.315L87.8887 413.406Z" fill="white" fill-opacity="0.602"/>
<path d="M22.665 251.162L35.8625 251.95L41.5121 241.092L22.665 251.162Z" fill="white" fill-opacity="0.602"/>
<path d="M22.6653 251.163L40.1818 263.403L35.8628 251.95L22.6653 251.163Z" fill="white"/>
<path d="M49.4 252.756L58.3674 253.291L43.5905 241.208L49.4 252.756Z" fill="white" fill-opacity="0.602"/>
<path d="M58.3668 253.291L49.3978 252.756L42.2588 263.526L58.3668 253.291Z" fill="white"/>
<path d="M47.3243 252.633L41.5128 241.092L35.8662 251.949L47.3243 252.633Z" fill="white" fill-opacity="0.2"/>
<path d="M40.1816 263.402L47.3236 252.633L35.8655 251.949L40.1816 263.402Z" fill="white" fill-opacity="0.602"/>
<path d="M94.9385 92.8705L104.244 102.262L115.696 97.9443L94.9385 92.8705Z" fill="white" fill-opacity="0.602"/>
<path d="M94.939 92.8705L99.8197 113.675L104.244 102.262L94.939 92.8705Z" fill="white"/>
<path d="M113.789 111.895L120.112 118.276L117.167 99.4168L113.789 111.895Z" fill="white" fill-opacity="0.602"/>
<path d="M120.112 118.276L113.789 111.894L101.285 115.153L120.112 118.276Z" fill="white"/>
<path d="M112.326 110.418L115.697 97.9439L104.247 102.264L112.326 110.418Z" fill="white" fill-opacity="0.2"/>
<path d="M99.8199 113.675L112.326 110.418L104.247 102.264L99.8199 113.675Z" fill="white" fill-opacity="0.602"/>
<path d="M300.206 39.5124C302.109 38.7773 303.409 37.2689 303.427 34.5326C303.456 30.7937 300.399 29.2205 296.412 28.4482L296.946 23.3132L293.828 22.9887L293.307 27.9885C292.487 27.9031 291.649 27.8322 290.815 27.7623L291.338 22.7302L288.224 22.4057L287.689 27.5392C287.012 27.4828 286.348 27.4269 285.701 27.3595L285.703 27.3444L281.403 26.895L281.056 30.2328C281.056 30.2328 283.363 30.429 283.32 30.4672C284.582 30.5995 284.918 31.3774 284.971 32.0243L284.363 37.8741L283.507 46.091C283.41 46.4834 283.11 47.0953 282.227 47.0046C282.264 47.0442 279.96 46.7681 279.96 46.7681L278.953 50.4361L283.009 50.8583C283.765 50.9378 284.506 51.0269 285.234 51.1086L284.696 56.3019L287.81 56.6269L288.344 51.4882C289.199 51.5949 290.025 51.6886 290.832 51.7716L290.299 56.886L293.416 57.2105L293.958 52.0264C299.229 52.27 303.035 51.3281 304.005 46.4406C304.786 42.5057 303.106 40.5381 300.206 39.5124ZM290.507 31.4443C292.265 31.6274 297.853 31.6415 297.47 35.3248C297.102 38.8559 291.617 37.8679 289.858 37.6847L290.507 31.4443ZM288.812 47.7156L289.53 40.8351C291.642 41.0544 298.331 41.1351 297.91 45.1836C297.507 49.066 290.926 47.9341 288.812 47.7156Z" fill="black"/>
<path d="M458.857 413.725C458.523 415.738 459.162 417.624 461.51 419.029C464.715 420.954 467.624 419.12 470.314 416.078L474.466 419.147L476.329 416.626L472.287 413.637C472.778 412.974 473.264 412.289 473.748 411.606L477.817 414.613L479.678 412.095L475.529 409.026C475.921 408.472 476.306 407.929 476.693 407.405L476.705 407.414L479.277 403.939L476.578 401.945C476.578 401.945 475.237 403.832 475.226 403.776C474.471 404.796 473.63 404.69 473.046 404.406L468.317 400.911L461.674 396C461.385 395.717 461.01 395.147 461.537 394.433C461.484 394.445 462.892 392.6 462.892 392.6L460.245 389.87L457.82 393.149C457.368 393.759 456.915 394.352 456.474 394.938L452.275 391.836L450.413 394.353L454.568 397.424C454.041 398.106 453.541 398.77 453.059 399.423L448.925 396.366L447.062 398.886L451.252 401.986C448.364 406.402 447.242 410.159 450.959 413.478C453.951 416.15 456.5 415.702 458.857 413.725ZM470.733 409.47C469.682 410.891 466.831 415.697 463.853 413.496C460.999 411.385 464.636 407.163 465.688 405.74L470.733 409.47ZM457.579 399.744L463.141 403.857C461.879 405.565 458.411 411.286 455.138 408.867C451.999 406.547 456.317 401.453 457.579 399.744Z" fill="black"/>
<path d="M57.3394 362.558C55.7447 361.285 53.7867 360.924 51.4149 362.288C48.1713 364.148 48.3552 367.582 49.699 371.414L44.9957 373.543L46.2878 376.399L50.868 374.327C51.2079 375.078 51.5692 375.838 51.9295 376.593L47.3205 378.679L48.6111 381.532L53.3137 379.405C53.6061 380.018 53.8929 380.619 54.1611 381.212L54.1472 381.218L55.9277 385.158L58.9848 383.774C58.9848 383.774 57.9909 381.683 58.0452 381.7C57.5229 380.544 58.0254 379.862 58.5575 379.49L63.9154 377.065L71.442 373.659C71.8298 373.545 72.5096 373.495 72.8764 374.303C72.8922 374.252 73.8159 376.381 73.8159 376.381L77.491 375.4L75.8099 371.685C75.4975 370.992 75.2005 370.307 74.9039 369.637L79.6595 367.483L78.3698 364.63L73.6632 366.761C73.3242 365.969 72.9885 365.208 72.6527 364.469L77.338 362.35L76.046 359.494L71.2964 361.642C68.8482 356.967 66.1152 354.155 61.4058 355.783C57.614 357.093 56.7623 359.536 57.3394 362.558ZM55.2643 375.002C54.5356 373.391 51.7296 368.559 55.1031 367.032C58.338 365.569 60.2511 370.803 60.9805 372.415L55.2643 375.002ZM70.1694 368.259L63.8662 371.11C62.9902 369.175 59.6863 363.359 63.3942 361.68C66.9501 360.07 69.2919 366.324 70.1694 368.259Z" fill="black"/>
<path d="M442.026 111.23C443.988 111.788 445.934 111.366 447.596 109.192C449.87 106.224 448.374 103.127 445.656 100.111L449.172 96.3312L446.878 94.1958L443.453 97.8748C442.849 97.313 442.223 96.7522 441.599 96.1943L445.045 92.4906L442.753 90.3569L439.236 94.1346C438.73 93.6824 438.233 93.238 437.757 92.7946L437.767 92.7835L434.604 89.8369L432.318 92.2936C432.318 92.2936 434.042 93.8386 433.986 93.8436C434.914 94.7088 434.714 95.5321 434.366 96.0803L430.36 100.386L424.731 106.433C424.418 106.688 423.81 106.996 423.159 106.392C423.165 106.446 421.491 104.839 421.491 104.839L418.479 107.162L421.464 109.94C422.02 110.459 422.558 110.976 423.09 111.479L419.535 115.303L421.826 117.437L425.345 113.654C425.964 114.254 426.567 114.826 427.162 115.378L423.658 119.142L425.952 121.277L429.505 117.463C433.568 120.83 437.174 122.369 440.89 119.049C443.882 116.377 443.725 113.795 442.026 111.23ZM439.137 98.9494C440.431 100.154 444.884 103.528 442.362 106.239C439.943 108.837 436.157 104.748 434.862 103.542L439.137 98.9494ZM427.99 110.923L432.704 105.861C434.259 107.307 439.552 111.397 436.78 114.377C434.121 117.235 429.546 112.37 427.99 110.923Z" fill="black"/>
<path d="M325.036 499.446C323.558 500.853 322.933 502.744 323.962 505.279C325.364 508.746 328.791 509.031 332.77 508.222L334.239 513.171L337.243 512.28L335.815 507.46C336.605 507.226 337.407 506.971 338.204 506.717L339.643 511.567L342.645 510.677L341.178 505.728C341.825 505.522 342.46 505.32 343.084 505.135L343.088 505.15L347.233 503.922L346.279 500.705C346.279 500.705 344.072 501.405 344.097 501.353C342.88 501.713 342.272 501.123 341.977 500.545L340.303 494.907L337.954 486.987C337.894 486.587 337.937 485.907 338.788 485.653C338.739 485.631 340.974 485.005 340.974 485.005L340.503 481.231L336.593 482.391C335.864 482.606 335.145 482.807 334.441 483.009L332.954 478.005L329.952 478.894L331.422 483.847C330.592 484.075 329.792 484.304 329.014 484.536L327.553 479.606L324.548 480.497L326.029 485.495C321.064 487.284 317.907 489.608 318.878 494.496C319.66 498.43 321.964 499.607 325.036 499.446ZM337.082 503.197C335.387 503.699 330.218 505.821 329.164 502.271C328.155 498.867 333.601 497.685 335.298 497.181L337.082 503.197ZM332.431 487.512L334.397 494.145C332.361 494.749 326.149 497.23 324.991 493.329C323.88 489.587 330.394 488.118 332.431 487.512Z" fill="black"/>
<path d="M47.7384 203.927C47.2309 201.951 45.8849 200.483 43.1694 200.146C39.4596 199.679 37.5397 202.532 36.3065 206.401L31.2692 205.27L30.5824 208.328L35.4869 209.431C35.3062 210.235 35.1379 211.059 34.9709 211.879L30.0345 210.771L29.348 213.826L34.3838 214.958C34.2487 215.623 34.1155 216.276 33.9729 216.911L33.958 216.908L33.009 221.125L36.2833 221.86C36.2833 221.86 36.7479 219.592 36.7809 219.639C37.0598 218.401 37.8717 218.158 38.5202 218.182L44.2588 219.47L52.3193 221.28C52.6977 221.422 53.2703 221.792 53.077 222.658C53.1207 222.626 52.5771 224.882 52.5771 224.882L56.1021 226.311L56.9957 222.332C57.1631 221.591 57.3382 220.865 57.5045 220.152L62.5992 221.293L63.2861 218.239L58.2451 217.108C58.451 216.271 58.6407 215.462 58.8175 214.669L63.8345 215.797L64.5213 212.739L59.436 211.595C60.2943 206.389 59.8039 202.498 55.0633 200.964C51.2468 199.728 49.0962 201.166 47.7384 203.927ZM38.5917 212.615C38.979 210.891 39.6464 205.343 43.2597 206.154C46.7235 206.933 45.101 212.264 44.7133 213.99L38.5917 212.615ZM54.5531 216.202L47.8037 214.684C48.2685 212.612 49.1308 205.979 53.1023 206.87C56.9109 207.724 55.0173 214.128 54.5531 216.202Z" fill="black"/>
<path d="M505.736 258.375C506.83 260.098 508.564 261.077 511.251 260.558C514.923 259.854 515.866 256.547 515.842 252.487L520.982 252.003L520.689 248.883L515.684 249.352C515.607 248.531 515.513 247.695 515.418 246.864L520.455 246.39L520.162 243.273L515.024 243.754C514.946 243.08 514.871 242.418 514.81 241.77L514.825 241.768L514.423 237.464L511.082 237.778C511.082 237.778 511.342 240.079 511.296 240.045C511.414 241.308 510.717 241.79 510.093 241.968L504.237 242.519L496.012 243.29C495.608 243.272 494.949 243.098 494.865 242.215C494.834 242.258 494.653 239.945 494.653 239.945L490.858 239.676L491.239 243.736C491.31 244.493 491.368 245.237 491.43 245.967L486.232 246.458L486.524 249.575L491.668 249.091C491.73 249.95 491.801 250.779 491.877 251.587L486.758 252.067L487.051 255.187L492.24 254.702C493.035 259.918 494.704 263.466 499.687 263.459C503.699 263.454 505.299 261.421 505.736 258.375ZM511.747 247.284C511.912 249.043 512.993 254.525 509.306 254.872C505.772 255.203 505.665 249.631 505.5 247.87L511.747 247.284ZM495.459 248.811L502.346 248.166C502.545 250.28 503.777 256.855 499.725 257.236C495.839 257.602 495.659 250.926 495.459 248.811Z" fill="black"/>
<path d="M165.927 479.569C163.888 479.636 162.164 480.632 161.246 483.21C159.987 486.731 162.356 489.223 165.866 491.265L163.671 495.938L166.507 497.271L168.646 492.722C169.392 493.072 170.16 493.415 170.924 493.756L168.773 498.335L171.607 499.667L173.803 494.996C174.423 495.272 175.032 495.544 175.621 495.82L175.614 495.834L179.526 497.675L180.953 494.637C180.953 494.637 178.839 493.692 178.892 493.67C177.744 493.13 177.683 492.285 177.847 491.656L180.347 486.333L183.861 478.856C184.082 478.518 184.567 478.039 185.37 478.415C185.349 478.366 187.433 479.385 187.433 479.385L189.592 476.254L185.901 474.519C185.214 474.195 184.543 473.867 183.883 473.55L186.101 468.824L183.268 467.491L181.072 472.167C180.3 471.785 179.55 471.425 178.815 471.08L181.003 466.427L178.166 465.094L175.948 469.81C171.051 467.844 167.147 467.48 164.622 471.776C162.588 475.234 163.526 477.645 165.927 479.569ZM172.428 490.381C170.828 489.629 165.557 487.775 167.131 484.424C168.642 481.211 173.495 483.95 175.096 484.702L172.428 490.381ZM179.387 475.575L176.444 481.836C174.521 480.933 168.232 478.654 169.962 474.97C171.622 471.437 177.463 474.673 179.387 475.575Z" fill="black"/>
<path d="M142.665 74.6994C143.601 72.8862 143.572 70.8952 141.768 68.8369C139.309 66.0209 135.977 66.8744 132.483 68.9432L129.474 64.7485L126.927 66.5752L129.856 70.6605C129.186 71.1411 128.512 71.6443 127.842 72.1457L124.893 68.035L122.348 69.8598L125.356 74.0542C124.813 74.461 124.279 74.8602 123.75 75.2394L123.741 75.227L120.227 77.7452L122.184 80.4717C122.184 80.4717 124.039 79.0872 124.033 79.1439C125.064 78.405 125.832 78.764 126.3 79.2129L129.729 83.9915L134.544 90.7045C134.732 91.0624 134.914 91.7192 134.193 92.2374C134.247 92.2428 132.34 93.5658 132.34 93.5658L134.022 96.9774L137.336 94.6006C137.954 94.1585 138.568 93.733 139.166 93.3108L142.211 97.5518L144.756 95.7279L141.744 91.5303C142.454 91.0427 143.134 90.5643 143.793 90.0902L146.79 94.2692L149.336 92.4425L146.3 88.206C150.404 84.889 152.625 81.6579 150.106 77.3588C148.078 73.8974 145.515 73.5411 142.665 74.6994ZM130.056 75.1038C131.492 74.0736 135.681 70.3748 137.84 73.3835C139.908 76.2689 135.151 79.1709 133.713 80.2021L130.056 75.1038ZM139.59 88.3981L135.559 82.7759C137.284 81.5376 142.34 77.1577 144.713 80.4646C146.989 83.6359 141.316 87.1582 139.59 88.3981Z" fill="black"/>
<defs>
<radialGradient id="paint0_radial_16072_739" cx="0" cy="0" r="1" gradientUnits="userSpaceOnUse" gradientTransform="translate(271.508 271.492) scale(260.988 260.988)">
<stop offset="0.58" stop-color="white"/>
<stop offset="0.6" stop-color="#FAF9F9"/>
<stop offset="0.63" stop-color="#EDEBE9"/>
<stop offset="0.66" stop-color="#D8D2CF"/>
<stop offset="0.69" stop-color="#BBB0AB"/>
<stop offset="0.72" stop-color="#95847D"/>
<stop offset="0.76" stop-color="#674F45"/>
<stop offset="0.79" stop-color="#3D1E11"/>
</radialGradient>
</defs>
</svg>
